#!OML:ASF H:\IndianDance\Patient Classification 1\Patient 1\Session 1\dancer.ASF
:FULLY-SPECIFIED
:DEGREES
4058
root 2.70986 15.0964 -13.0684 -174.529 -14.9759 183.457
lowerback 7.70718 2.88155 0.0958556
upperback -6.35908 3.72625 -0.00132891
thorax -11.1552 1.70674 -0.681229
lowerneck -14.6539 12.5406 8.73285
upperneck 18.6798 13.6236 5.67715
head 8.461 7.50463 2.11603
rclavicle 1.53313e-014 1.07344e-014
rhumerus -26.7372 57.0594 -55.8336
rradius 96.4612
rwrist -16.8703
rhand -33.0876 15.1716
rfingers 7.12502
rthumb -6.29876 -14.7148
lclavicle 1.53313e-014 1.07344e-014
lhumerus 31.3841 17.7319 27.5343
lradius 34.0764
lwrist 51.1615
lhand -6.02499 52.3286
lfingers 7.12502
lthumb 19.8083 81.3392
rfemur -26.1679 -6.04683 23.4214
rtibia 48.5368
rfoot -23.6178 -14.0921
rtoes 17.5929
lfemur -39.373 18.1076 -12.3151
ltibia 33.625
lfoot -25.5482 20.1081
ltoes -22.4122
4059
root 2.6565 15.0741 -13.0688 -174.744 -15.1804 183.543
lowerback 7.74879 2.90442 0.47277
upperback -6.29651 3.80373 -0.0749105
thorax -11.0777 1.71446 -0.9836
lowerneck -14.6283 12.2944 8.54348
upperneck 18.5824 13.3599 5.59973
head 8.41087 7.35979 2.07604
rclavicle 3.3197e-014 3.97569e-015
rhumerus -26.298 57.2795 -55.5135
rradius 96.5556
rwrist -19.4743
rhand -30.5836 10.5725
rfingers 7.12502
rthumb -3.88101 -19.3719
lclavicle 3.3197e-014 3.97569e-015
lhumerus 31.7163 16.9271 26.3714
lradius 33.6697
lwrist 49.9436
lhand -5.06533 53.0935
lfingers 7.12502
lthumb 20.7306 82.0062
rfemur -25.9641 -6.01143 23.1989
rtibia 48.7166
rfoot -23.7079 -14.1923
rtoes 16.9104
lfemur -40.0882 18.4225 -12.3752
ltibia 35.9271
lfoot -25.3125 18.3081
ltoes -23.6966
4060
root 2.59769 15.0545 -13.0689 -175.009 -15.2997 183.696
lowerback 7.79455 2.95114 0.885903
upperback -6.2365 3.92398 -0.0839504
thorax -11.0065 1.7431 -1.2442
lowerneck -14.6536 12.0252 8.3431
upperneck 18.6206 13.053 5.52596
head 8.41487 7.19575 2.04402
rclavicle 6.77359e-014 2.46493e-014
rhumerus -25.6991 57.5258 -54.9486
rradius 96.6588
rwrist -22.0883
rhand -27.8763 6.06912
rfingers 7.12502
rthumb -1.26644 -23.9069
lclavicle 6.77359e-014 2.46493e-014
lhumerus 31.9754 16.038 25.2038
lradius 33.5205
lwrist 49.0198
lhand -4.17942 53.415
lfingers 7.12502
lthumb 21.5817 82.2325
rfemur -25.7086 -6.17314 23.0282
rtibia 48.8505
rfoot -23.7662 -14.1433
rtoes 15.993
lfemur -40.6113 18.4294 -12.1323
ltibia 38.3864
lfoot -25.0025 16.3746
ltoes -24.9165
4061
root 2.53397 15.0377 -13.069 -175.317 -15.3382 183.913
lowerback 7.84061 3.01693 1.31333
upperback -6.18337 4.07748 -0.0243164
thorax -10.9454 1.78952 -1.44464
lowerneck -14.7388 11.7376 8.12877
upperneck 18.8027 12.7067 5.46514
head 8.47675 7.01488 2.02427
rclavicle -3.16813e-014 -1.23246e-014
rhumerus -24.9375 57.7816 -54.152
rradius 96.7677
rwrist -24.684
rhand -25.0407 1.72568
rfingers 7.12502
rthumb 1.47228 -28.249
lclavicle -3.16813e-014 -1.23246e-014
lhumerus 32.2086 15.1728 24.1255
lradius 33.5709
lwrist 48.1804
lhand -3.31382 53.2365
lfingers 7.12502
lthumb 22.4128 81.9562
rfemur -25.4021 -6.48735 22.9038
rtibia 48.9339
rfoot -23.7973 -13.9411
rtoes 14.938
lfemur -40.925 18.1957 -11.6341
ltibia 40.9654
lfoot -24.6332 14.3021
ltoes -25.9913
4062
root 2.46562 15.022 -13.0698 -175.656 -15.2919 184.177
lowerback 7.87929 3.09718 1.74118
upperback -6.13749 4.25407 0.0886019
thorax -10.8901 1.84892 -1.59149
lowerneck -14.885 11.437 7.90705
upperneck 19.1154 12.3245 5.42888
head 8.59241 6.81977 2.01889
rclavicle -5.95112e-014 -1.07344e-014
rhumerus -24.0131 58.0154 -53.1675
rradius 96.8741
rwrist -27.192
rhand -22.1516 -2.44403
rfingers 7.12502
rthumb 4.26238 -32.3811
lclavicle -5.95112e-014 -1.07344e-014
lhumerus 32.4431 14.3699 23.1363
lradius 33.8106
lwrist 47.3569
lhand -2.56479 52.6137
lfingers 7.12502
lthumb 23.1316 81.245
rfemur -25.0598 -6.90888 22.8051
rtibia 48.9902
rfoot -23.8114 -13.6363
rtoes 13.7062
lfemur -41.0171 17.8021 -10.9547
ltibia 43.6176
lfoot -24.2652 12.0968
ltoes -26.7504
4063
root 2.39296 15.0054 -13.0717 -176 -15.151 184.455
lowerback 7.89876 3.19095 2.13857
upperback -6.10274 4.44585 0.237703
thorax -10.839 1.91877 -1.68391
lowerneck -15.0863 11.1266 7.68363
upperneck 19.5404 11.9093 5.42256
head 8.75552 6.61219 2.02747
rclavicle -1.62506e-014 3.97569e-015
rhumerus -22.9429 58.1967 -52.0513
rradius 96.9741
rwrist -29.4928
rhand -19.2298 -6.45874
rfingers 7.12502
rthumb 7.08334 -36.3202
lclavicle -1.62506e-014 3.97569e-015
lhumerus 32.6982 13.6539 22.2114
lradius 34.2155
lwrist 46.4523
lhand -1.95458 51.5827
lfingers 7.12502
lthumb 23.717 80.1394
rfemur -24.7194 -7.39077 22.7002
rtibia 49.0646
rfoot -23.8294 -13.2516
rtoes 12.3211
lfemur -40.8873 17.3295 -10.1841
ltibia 46.2765
lfoot -23.9492 9.78765
ltoes -26.9337
4064
root 2.31608 14.9855 -13.0753 -176.324 -14.8992 184.704
lowerback 7.8838 3.30211 2.47554
upperback -6.07971 4.65096 0.397196
thorax -10.7843 1.99941 -1.73149
lowerneck -15.3348 10.8061 7.44981
upperneck 20.0455 11.4608 5.46159
head 8.95294 6.39253 2.0538
rclavicle -1.40889e-014 -2.78299e-015
rhumerus -21.769 58.3015 -50.8778
rradius 97.0764
rwrist -31.4343
rhand -16.3612 -10.3309
rfingers 7.12502
rthumb 9.85169 -40.0804
lclavicle -1.40889e-014 -2.78299e-015
lhumerus 32.9745 13.0184 21.3104
lradius 34.7882
lwrist 45.4307
lhand -1.41878 50.2706
lfingers 7.12502
lthumb 24.2307 78.7596
rfemur -24.4289 -7.87967 22.5437
rtibia 49.2109
rfoot -23.8659 -12.7984
rtoes 10.8687
lfemur -40.5304 16.8417 -9.41735
ltibia 48.847
lfoot -23.6664 7.48744
ltoes -26.4702
4065
root 2.23538 14.9613 -13.0806 -176.607 -14.5186 184.895
lowerback 7.82734 3.43543 2.73533
upperback -6.06948 4.87147 0.546115
thorax -10.7226 2.0924 -1.74715
lowerneck -15.6254 10.4719 7.2045
upperneck 20.6087 10.9745 5.54986
head 9.17708 6.15885 2.09731
rclavicle -1.40889e-014 -2.78299e-015
rhumerus -20.5494 58.3218 -49.7256
rradius 97.2017
rwrist -32.8647
rhand -13.6925 -14.0062
rfingers 7.12502
rthumb 12.4256 -43.6169
lclavicle -1.40889e-014 -2.78299e-015
lhumerus 33.2813 12.4799 20.423
lradius 35.5127
lwrist 44.2345
lhand -0.88971 48.7691
lfingers 7.12502
lthumb 24.7379 77.1896
rfemur -24.2304 -8.32482 22.3096
rtibia 49.4721
rfoot -23.9275 -12.3034
rtoes 9.37217
lfemur -39.9347 16.3711 -8.71135
ltibia 51.2077
lfoot -23.333 5.33023
ltoes -25.3717
4066
root 2.15098 14.9321 -13.0876 -176.83 -13.9939 185.001
lowerback 7.72441 3.59409 2.90708
upperback -6.07177 5.10873 0.664638
thorax -10.6502 2.19871 -1.74574
lowerneck -15.9483 10.1272 6.94861
upperneck 21.1985 10.4557 5.68958
head 9.41641 5.91403 2.15734
rclavicle 1.83006e-014 -7.15625e-015
rhumerus -19.3364 58.2638 -48.6618
rradius 97.3821
rwrist -33.6751
rhand -11.2698 -17.389
rfingers 7.12502
rthumb 14.7606 -46.8434
lclavicle 1.83006e-014 -7.15625e-015
lhumerus 33.6097 12.0099 19.4817
lradius 36.3944
lwrist 42.9235
lhand -0.380554 47.1489
lfingers 7.12502
lthumb 25.2258 75.5015
rfemur -24.1564 -8.68737 21.9724
rtibia 49.8787
rfoot -24.0174 -11.7735
rtoes 7.85391
lfemur -39.0771 15.9212 -8.11344
ltibia 53.2056
lfoot -22.865 3.41283
ltoes -23.787
4067
root 2.06309 14.8991 -13.0967 -176.988 -13.3178 185.005
lowerback 7.57497 3.78248 2.9808
upperback -6.0863 5.36726 0.744075
thorax -10.5671 2.32117 -1.73141
lowerneck -16.2928 9.7656 6.67103
upperneck 21.7946 9.90183 5.87415
head 9.66252 5.65561 2.23157
rclavicle 1.94436e-014 0
rhumerus -18.1909 58.1505 -47.7295
rradius 97.6561
rwrist -33.8168
rhand -9.21312 -20.3622
rfingers 7.12502
rthumb 16.7413 -49.6604
lclavicle 1.94436e-014 0
lhumerus 33.9571 11.6031 18.4693
lradius 37.4119
lwrist 41.5006
lhand 0.200179 45.4381
lfingers 7.12502
lthumb 25.7821 73.7112
rfemur -24.2149 -8.9398 21.5169
rtibia 50.4304
rfoot -24.1334 -11.2084
rtoes 6.38343
lfemur -37.9385 15.4741 -7.65259
ltibia 54.6979
lfoot -22.2998 1.75979
ltoes -21.7011
4068
root 1.97173 14.8619 -13.1079 -177.083 -12.4905 184.898
lowerback 7.38452 4.00249 2.95885
upperback -6.11203 5.65074 0.781414
thorax -10.4755 2.46137 -1.70923
lowerneck -16.6452 9.38497 6.36385
upperneck 22.3757 9.31723 6.09371
head 9.90623 5.38413 2.31693
rclavicle -5.10752e-014 -1.41137e-014
rhumerus -17.1535 58.0125 -46.9459
rradius 98.0576
rwrist -33.3157
rhand -7.65058 -22.7526
rfingers 7.12502
rthumb 18.245 -51.9169
lclavicle -5.10752e-014 -1.41137e-014
lhumerus 34.3225 11.2475 17.3564
lradius 38.5617
lwrist 40.0325
lhand 0.833411 43.6747
lfingers 7.12502
lthumb 26.3884 71.8583
rfemur -24.4052 -9.08993 20.9377
rtibia 51.1159
rfoot -24.2618 -10.5995
rtoes 4.96945
lfemur -36.5231 15.0107 -7.36891
ltibia 55.5757
lfoot -21.8679 0.449477
ltoes -19.5646
4069
root 1.87751 14.8234 -13.1214 -177.118 -11.5294 184.692
lowerback 7.1587 4.25068 2.85417
upperback -6.15189 5.95732 0.781949
thorax -10.3824 2.61731 -1.6805
lowerneck -16.9935 8.98368 6.02365
upperneck 22.9308 8.7086 6.327
head 10.1429 5.10018 2.40668
rclavicle -3.32343e-014 -8.54774e-015
rhumerus -16.2466 57.8851 -46.3017
rradius 98.6154
rwrist -32.2646
rhand -6.70614 -24.4202
rfingers 7.12502
rthumb 19.1534 -53.497
lclavicle -3.32343e-014 -8.54774e-015
lhumerus 34.7062 10.9612 16.1731
lradius 39.7996
lwrist 38.5149
lhand 1.51359 41.8249
lfingers 7.12502
lthumb 27.0393 69.9092
rfemur -24.7191 -9.16532 20.2527
rtibia 51.9072
rfoot -24.3861 -9.9443
rtoes 3.61725
lfemur -34.9023 14.5503 -7.2983
ltibia 55.8261
lfoot -21.6507 -0.272321
ltoes -18.3086
4070
root 1.78118 14.7861 -13.1365 -177.096 -10.4638 184.402
lowerback 6.91662 4.51855 2.68033
upperback -6.20996 6.27932 0.755082
thorax -10.3047 2.78389 -1.64302
lowerneck -17.3351 8.56324 5.64233
upperneck 23.4539 8.08677 6.55831
head 10.3705 4.80648 2.4979
rclavicle -5.1858e-014 7.35503e-015
rhumerus -15.4623 57.7975 -45.7654
rradius 99.3392
rwrist -30.7933
rhand -6.47462 -25.2588
rfingers 7.12502
rthumb 19.3761 -54.3134
lclavicle -5.1858e-014 7.35503e-015
lhumerus 35.1027 10.7347 14.9052
lradius 41.1054
lwrist 36.9684
lhand 2.17989 39.8632
lfingers 7.12502
lthumb 27.6766 67.8469
rfemur -25.1508 -9.19828 19.4855
rtibia 52.7829
rfoot -24.4891 -9.24081
rtoes 2.38027
lfemur -33.1807 14.0914 -7.43257
ltibia 55.5552
lfoot -21.7177 -0.74018
ltoes -16.9209
